<svg width="131" height="157" viewBox="0 0 131 157" fill="none" xmlns="http://www.w3.org/2000/svg">
<g clip-path="url(#clip0_196_1254)">
<path d="M111.788 52.668V89.373L103.525 89.3796V52.668H97.151V89.3847L51.3799 89.4209V73.2391H12.4394V122.749C9.25433 126.341 7.28497 131.259 7.28497 136.679C7.28497 147.649 15.3406 156.572 25.2422 156.572C34.1753 156.572 41.6031 149.309 42.972 139.834H48.916C50.2856 149.309 57.7128 156.572 66.6462 156.572C76.5481 156.572 84.6037 147.649 84.6037 136.679C84.6037 131.793 83.0018 127.314 80.3531 123.848H94.2326C91.5836 127.314 89.982 131.793 89.982 136.679C89.982 147.649 98.0373 156.572 107.939 156.572C117.842 156.572 125.897 147.649 125.897 136.679C125.897 135.391 125.783 134.134 125.57 132.914H131.556V108.743L126.886 108.738L126.877 89.7865H126.62L126.62 89.3609L118.162 89.3679V52.668H111.788ZM18.8133 80.2999H45.0057V96.4836L120.506 96.4265L120.516 115.793L125.182 115.798V125.853H122.993C120.022 120.802 115.04 117.334 109.313 116.851V116.787H65.272V116.851C57.1939 117.533 50.5933 124.154 49.0378 132.774H42.8509C41.2076 123.669 33.9379 116.787 25.2422 116.787C22.9771 116.787 20.811 117.259 18.8133 118.11V80.2999ZM96.3558 136.679C96.3558 129.604 101.552 123.848 107.939 123.848C114.326 123.848 119.523 129.604 119.523 136.679C119.523 143.755 114.326 149.511 107.939 149.511C101.552 149.511 96.3558 143.755 96.3558 136.679ZM66.6462 123.848C73.0335 123.848 78.2296 129.604 78.2296 136.679C78.2296 143.755 73.0335 149.511 66.6462 149.511C61.2418 149.511 56.6905 145.389 55.4173 139.834H66.6462V132.774H55.6124C57.1077 127.603 61.4881 123.848 66.6462 123.848ZM13.6588 136.679C13.6588 129.604 18.8548 123.848 25.2422 123.848C30.4003 123.848 34.7807 127.603 36.2757 132.774H25.2422V139.834H36.4711C35.1982 145.389 30.6469 149.511 25.2422 149.511C18.8548 149.511 13.6588 143.755 13.6588 136.679Z" fill="white"/>
<path d="M44.8674 46.1054H44.8651C44.8651 53.1809 39.6681 58.9378 33.2807 58.9378C26.8937 58.9378 21.6976 53.1809 21.6976 46.1054H15.3238C15.3238 57.0748 23.3791 65.9983 33.2807 65.9983C43.1552 65.9983 51.1911 57.1256 51.2373 46.1994H51.2392C51.2392 32.9378 61.5369 22.1483 74.1948 22.1483C86.8523 22.1483 97.151 32.9378 97.151 46.1994H103.525C103.525 29.0439 90.3675 15.0875 74.1948 15.0875C58.0514 15.0875 44.9156 28.9931 44.8674 46.1054Z" fill="white"/>
<path d="M72.3063 46.0978C72.3063 53.1732 67.1096 58.929 60.7222 58.929V65.9902C70.6245 65.9902 78.6805 57.066 78.6805 46.0978H72.3063Z" fill="white"/>
<path d="M-0.100281 48.7708H6.27355C6.27355 41.6953 11.4696 35.9395 17.857 35.9395V28.879C7.95539 28.879 -0.100281 37.8025 -0.100281 48.7708Z" fill="white"/>
<path d="M75.4934 36.3845C80.3752 36.3845 84.3473 40.7841 84.3473 46.1921H90.7214C90.7214 36.8913 83.8897 29.324 75.4934 29.324V36.3845Z" fill="white"/>
<path d="M30.0939 46.1995H36.4681C36.4681 24.5229 53.3624 6.88766 74.1278 6.88766C94.8938 6.88766 111.788 24.5229 111.788 46.1995H118.162C118.162 20.6291 98.408 -0.172819 74.1278 -0.172819C49.8472 -0.172819 30.0939 20.6291 30.0939 46.1995Z" fill="white"/>
</g>
<defs>
<clipPath id="clip0_196_1254">
<rect width="131" height="157" fill="white"/>
</clipPath>
</defs>
</svg>
