<svg width="131" height="158" viewBox="0 0 131 158" fill="none" xmlns="http://www.w3.org/2000/svg">
<path d="M0 8.93307C10.213 8.98218 15.1134 14.1624 20.7822 20.1547C26.5688 26.2732 33.1289 33.2075 45.7776 33.2075C58.4274 33.2075 64.9865 26.2732 70.7731 20.1547C74.9538 15.7352 78.7162 11.758 84.5 9.95448L88.8279 1.99286C78.0247 2.95335 72.0371 9.28314 66.7055 14.9205C61.0094 20.942 56.0897 26.1429 45.7776 26.1429C35.4656 26.1429 30.5459 20.942 24.8498 14.9205C19.0854 8.8256 12.5541 1.92158 0 1.8684V8.93307Z" fill="white"/>
<path d="M0 34.905C10.213 34.9541 15.1124 40.1343 20.7822 46.1277C26.5688 52.2462 33.1283 59.1802 45.7777 59.1802C58.4274 59.1802 64.9865 52.2455 70.7741 46.1277L68.1068 39.5767C62.4114 45.5993 56.0897 52.1159 45.7777 52.1159C35.4656 52.1159 30.5459 46.915 24.8505 40.8928C19.0854 34.7986 12.5541 27.8935 0 27.8407V34.905Z" fill="white"/>
<path d="M0 60.6715C10.213 60.7209 15.1124 65.9004 20.7822 71.8945C26.5688 78.0131 33.1283 84.947 45.7777 84.947C49.9276 84.947 53.4222 84.2007 56.4491 82.9814L54.9635 76.1265C52.3938 77.2324 49.4223 77.882 45.7777 77.882C35.4656 77.882 30.5459 72.6815 24.8505 66.6593C19.0854 60.5651 12.5541 53.66 0 53.6072V60.6715Z" fill="white"/>
<path d="M88.5391 84.5167V99.539H78.9897V142.65C78.9897 150.739 84.6323 157.319 91.5679 157.319C98.5029 157.319 104.145 150.739 104.145 142.65V99.539H94.5967V84.5167H88.5391ZM85.0474 106.603H98.0878V114.481H85.0474V106.603ZM85.0474 142.65V121.545H98.0875V142.65C98.0875 146.843 95.1632 150.254 91.5679 150.254C87.973 150.254 85.0474 146.843 85.0474 142.65Z" fill="white"/>
<path d="M83.8911 16.1005C80.3335 16.1005 77.13 18.4025 75.531 22.1093L80.9415 25.2855C81.5149 23.9576 82.6173 23.1651 83.8911 23.1651C85.1646 23.1651 86.2674 23.9576 86.8392 25.2855L109.572 77.9681C110.099 79.1882 110.048 80.5556 109.434 81.7181C108.819 82.8817 107.794 83.5497 106.623 83.5497V90.6147C109.895 90.6147 112.874 88.6742 114.591 85.4242C116.308 82.1749 116.455 78.2004 114.983 74.7923L92.2512 22.1093C90.652 18.4033 87.4484 16.1005 83.8918 16.1005H83.8911Z" fill="white"/>
<path d="M81.8986 7.43516L53.9072 72.3098C52.2051 76.2519 52.3745 80.8483 54.36 84.6064C56.3452 88.3646 59.7907 90.6079 63.575 90.6079H119.56C123.344 90.6079 126.79 88.3646 128.775 84.6064C130.761 80.8483 130.93 76.2519 129.228 72.3098H129.229L101.237 7.43516C99.387 3.14895 95.6825 0.486457 91.5673 0.486457C87.4531 0.486457 83.7483 3.14895 81.8986 7.43516ZM59.5175 80.9007C58.63 79.2205 58.5575 77.2482 59.3187 75.4856L87.3103 10.6109C88.1367 8.69476 89.729 7.55148 91.5673 7.55148C93.4063 7.55148 94.9983 8.69476 95.825 10.6109L123.817 75.4856H123.818C124.578 77.2482 124.505 79.2205 123.618 80.9007C122.731 82.5791 121.252 83.5433 119.56 83.5433H63.575C61.8836 83.5433 60.4047 82.5791 59.5175 80.9007Z" fill="white"/>
</svg>
