<svg width="131" height="157" viewBox="0 0 131 157" fill="none" xmlns="http://www.w3.org/2000/svg">
<g clip-path="url(#clip0_196_1215)">
<path d="M17.7798 153.726L17.9929 157.081L21.3788 156.999C21.7848 156.99 62.0575 155.575 65.2734 117.468L58.2541 116.884C56.0555 142.952 33.5134 148.516 24.6829 149.696C24.5371 117.943 50.8284 112.127 51.9873 111.887L51.2811 108.463L51.9768 111.889L50.585 105.037C50.2306 105.107 15.1558 112.616 17.7798 153.726Z" fill="white"/>
<path d="M75.8894 111.887C77.0483 112.127 103.347 117.945 103.195 149.708C94.3647 148.556 71.8294 143.055 69.6207 116.884L62.6014 117.468C65.8195 155.575 106.091 156.99 106.498 156.999L109.883 157.081L110.097 153.726C112.721 112.616 77.6464 105.107 77.292 105.037L75.8894 111.887Z" fill="white"/>
<path d="M33.7509 71.4925C33.7509 84.6181 42.359 96.2496 55.1699 100.436L57.3707 93.7951C47.4545 90.555 40.7941 81.5925 40.7941 71.4925C40.7941 58.5116 51.7477 47.9506 65.2109 47.9506C78.6738 47.9506 89.6278 58.5116 89.6278 71.4925C89.6278 82.0526 82.2646 91.3859 71.7192 94.1889L73.5409 100.942C87.1604 97.3214 96.6718 85.2115 96.6718 71.4925C96.6718 54.6565 82.5584 40.9601 65.2109 40.9601C47.8631 40.9601 33.7509 54.6565 33.7509 71.4925Z" fill="white"/>
<path d="M61.4239 -0.431534L58.7356 -0.26564L58.1939 2.35509C56.7288 9.4432 43.9785 9.08694 43.6928 9.0695H43.5343C27.1237 9.0695 14.9678 13.3684 7.40606 21.8493C-1.48656 31.822 -0.70074 44.0106 -0.512323 45.9362C-0.428955 76.6549 20.4184 103.494 49.4579 110.732C51.1716 117.87 57.5206 123.186 65.0734 123.186C72.6254 123.186 78.9736 117.871 80.6884 110.733C110.706 103.294 132.044 75.7044 130.656 45.5911C130.086 33.2196 125.428 23.0524 116.808 15.3712C100.632 0.955658 75.1926 -0.52803 65.4012 -0.52803C63.1264 -0.52803 61.6972 -0.447868 61.4239 -0.431534ZM64.2356 6.48105C72.0482 6.40275 97.1596 7.25591 112.103 20.573C119.265 26.9564 123.142 35.4811 123.621 45.9095C124.829 72.1199 106.65 96.1965 80.7957 103.475C79.2525 96.1015 72.7902 90.5524 65.0734 90.5524C57.3591 90.5524 50.8987 96.0974 49.3528 103.466C24.3113 96.3401 6.52977 72.7018 6.52977 45.7503L6.5036 45.3202C6.49015 45.2155 5.28375 34.7763 12.6788 26.4825C18.8505 19.5625 29.2374 16.0559 43.3949 16.0559H43.5156C43.6057 16.0604 43.9343 16.0741 44.4476 16.0741C47.9868 16.0745 60.3315 15.4139 64.2356 6.48105ZM56.0428 106.869C56.0428 101.727 60.0941 97.5429 65.0734 97.5429C70.0522 97.5429 74.1036 101.727 74.1036 106.869C74.1036 112.012 70.0522 116.196 65.0734 116.196C60.0941 116.196 56.0428 112.012 56.0428 106.869Z" fill="white"/>
</g>
<defs>
<clipPath id="clip0_196_1215">
<rect width="131" height="157" fill="white"/>
</clipPath>
</defs>
</svg>
