<svg width="131" height="158" viewBox="0 0 131 158" fill="none" xmlns="http://www.w3.org/2000/svg">
<path d="M76.2746 16.9582C76.2771 17.142 76.2786 35.3868 63.6528 45.7325C63.0173 46.2385 48.1006 58.3707 47.6598 77.8805L47.5819 82.884L47.6589 82.8598V135.172C47.6589 147.48 54.7234 157.497 63.4076 157.497H119.561C125.666 157.497 130.633 150.585 130.633 142.09C130.633 137.432 129.139 133.248 126.781 130.421C129.139 127.592 130.633 123.41 130.633 118.749C130.633 114.09 129.139 109.906 126.781 107.079C129.139 104.251 130.633 100.068 130.633 95.4089C130.633 90.7483 129.139 86.5651 126.781 83.7372C129.139 80.9093 130.633 76.7265 130.633 72.0677C130.633 63.5726 125.666 56.6612 119.561 56.6612H97.8964C104.712 32.1261 104.352 18.4084 104.281 16.7994C104.229 7.79371 97.9676 0.483999 90.2782 0.483999C82.5565 0.483999 76.2746 7.85402 76.2746 16.9582ZM54.028 135.172V78.9853C54.028 78.8176 54.0375 78.652 54.0454 78.4879L54.1099 76.4389C55.2646 61.7175 67.1177 52.0052 67.2677 51.8835C82.7533 39.1946 82.6551 17.7615 82.6438 16.9118C82.6438 11.9747 86.0689 7.95713 90.2782 7.95713C94.4869 7.95713 97.9122 11.9747 97.9122 16.9118L97.9183 17.1506C97.9262 17.2969 98.5836 32.0594 90.45 59.1579L88.9567 64.1343H119.561C122.109 64.1343 124.263 67.7672 124.263 72.0677C124.263 76.3683 122.109 80.0005 119.561 80.0005H107.748V87.474H119.561C122.109 87.474 124.263 91.1062 124.263 95.4089C124.263 99.7094 122.109 103.342 119.561 103.342H107.748V110.815H119.561C122.109 110.815 124.263 114.448 124.263 118.749C124.263 123.051 122.109 126.683 119.561 126.683H107.748V134.157H119.561C122.109 134.157 124.263 137.789 124.263 142.09C124.263 146.391 122.109 150.023 119.561 150.023H94.402H63.4076C58.2361 150.023 54.028 143.361 54.028 135.172Z" fill="white"/>
<path d="M15.3199 56.6612C6.90678 56.6612 0.0639648 64.6895 0.0639648 74.557V139.6C0.0639648 149.468 6.90678 157.497 15.3199 157.497H26.8703C35.2825 157.497 42.1257 149.468 42.1257 139.6V74.557C42.1257 64.6895 35.2825 56.6612 26.8703 56.6612H15.3199ZM6.43283 139.6V74.557C6.43283 68.8088 10.4198 64.1343 15.3199 64.1343H26.8703C31.7702 64.1343 35.7562 68.8088 35.7562 74.557V139.6C35.7562 145.349 31.7702 150.023 26.8703 150.023H15.3199C10.4198 150.023 6.43283 145.349 6.43283 139.6Z" fill="white"/>
<path d="M12.4391 132.884C12.4391 138.482 16.3217 143.039 21.0944 143.039C25.8674 143.039 29.7505 138.482 29.7505 132.884C29.7505 127.286 25.8674 122.731 21.0944 122.731C16.3217 122.731 12.4391 127.286 12.4391 132.884ZM18.8083 132.884C18.8083 131.405 19.8334 130.204 21.0944 130.204C22.3553 130.204 23.3811 131.405 23.3811 132.884C23.3811 134.363 22.3553 135.566 21.0944 135.566C19.8334 135.566 18.8083 134.363 18.8083 132.884Z" fill="white"/>
</svg>
