<svg width="64" height="64" viewBox="0 0 64 64" fill="none" xmlns="http://www.w3.org/2000/svg">
<g clip-path="url(#clip0_208_1836)">
<path d="M46.57 19.1701C45.85 18.5901 44.88 18.5801 44.7 18.5801C43.35 18.6001 41.78 19.1201 32.57 22.9501C29.52 24.2201 23.33 26.8801 14.18 30.8701C12.26 31.6401 11.35 32.4201 11.23 33.4101C11.01 35.2001 12.85 35.7801 14.64 36.3401L15.32 36.5601C16.67 37.0001 19.14 37.7401 20.51 37.7701C21.74 37.7701 23.09 37.3101 24.51 36.3401C29.38 33.0501 32.48 30.9801 34.43 29.6901C32.87 31.1801 31.05 32.8801 30.09 33.7701C29.31 34.4901 28.76 35.0101 28.64 35.1301C28.4 35.3801 28.16 35.6101 27.93 35.8401C26.91 36.8201 25.96 37.7401 26.07 39.0301C26.18 40.2601 27.3 41.1301 28.13 41.6801C29.41 42.5201 30.43 43.2201 31.46 43.9201C32.59 44.6901 33.71 45.4601 35.17 46.4101C35.53 46.6501 35.87 46.8901 36.2 47.1301C37.47 48.0301 38.77 48.9601 40.4 48.9601C40.53 48.9601 40.66 48.9501 40.8 48.9401C41.86 48.8401 43.25 48.0601 43.85 44.9001C44.86 39.5101 46.94 27.3101 47.43 22.1401C47.49 21.5601 47.41 20.9001 47.37 20.6301C47.33 20.4001 47.21 19.6901 46.57 19.1701ZM45.45 21.9401C44.97 26.9801 42.86 39.3301 41.89 44.5201C41.57 46.2501 41.03 46.9001 40.63 46.9401C39.55 47.0401 38.59 46.3601 37.37 45.4901C37.02 45.2401 36.65 44.9801 36.27 44.7301C34.82 43.7801 33.71 43.0201 32.59 42.2601C31.56 41.5601 30.53 40.8601 29.24 40.0101C28.16 39.3001 28.08 38.9201 28.07 38.8401C28.04 38.5101 28.75 37.8201 29.32 37.2701C29.57 37.0301 29.83 36.7801 30.09 36.5101C30.2 36.4001 30.72 35.9101 31.46 35.2301C38.52 28.6701 38.91 28.0901 39.04 27.5601C39.12 27.2101 39.12 26.5001 38.58 26.0301C38.26 25.7401 37.89 25.6701 37.59 25.6701C37.35 25.6701 37.16 25.7201 37.04 25.7401C36.73 25.8101 36.44 25.8801 23.4 34.6801C22.32 35.4201 21.37 35.8101 20.57 35.7701C19.77 35.7501 18.04 35.3401 15.96 34.6601L15.26 34.4401C14.53 34.2101 13.56 33.9101 13.27 33.6601C13.4 33.5201 13.79 33.1901 14.96 32.7301L14.99 32.7201C24.14 28.7301 30.32 26.0701 33.36 24.8101C41.47 21.4401 43.7 20.6101 44.76 20.5901C44.95 20.5601 45.23 20.6501 45.33 20.7301C45.36 20.7601 45.39 20.8001 45.42 20.9801C45.43 21.1501 45.48 21.6201 45.45 21.9401Z" fill="white"/>
<path d="M32 0.25C14.49 0.25 0.25 14.49 0.25 32C0.25 49.51 14.49 63.75 32 63.75C49.51 63.75 63.75 49.51 63.75 32C63.75 14.49 49.51 0.25 32 0.25ZM32 61.75C15.6 61.75 2.25 48.4 2.25 32C2.25 15.6 15.6 2.25 32 2.25C48.4 2.25 61.75 15.6 61.75 32C61.75 48.4 48.4 61.75 32 61.75Z" fill="white"/>
</g>
<defs>
<clipPath id="clip0_208_1836">
<rect width="64" height="64" fill="white"/>
</clipPath>
</defs>
</svg>
